<svg viewBox="0 0 146 27" xmlns="http://www.w3.org/2000/svg"><path d="m4.256 23v-8.708h5.572v-2.52h-5.572v-5.6h5.74v-2.548h-8.484v19.376zm12.46.168c1.848 0 2.912-.84 3.36-1.54v1.372h2.66v-14.98h-2.688v9.492c0 1.96-.952 3.248-2.716 3.248s-2.604-1.176-2.604-3.164v-9.576h-2.66v9.884c0 2.968 1.316 5.264 4.648 5.264zm11.396-.168v-9.52c0-1.96.952-3.248 2.744-3.248 1.82 0 2.66 1.176 2.66 3.164v9.604h2.66v-9.884c0-2.912-1.26-5.264-4.676-5.264-1.876 0-2.968.896-3.388 1.512v-1.344h-2.66v14.98zm17.696.252c2.548 0 4.396-1.316 5.18-2.464v2.212h2.52v-20.468h-2.66v7.392c-.952-1.148-2.716-2.156-5.096-2.156-4.424 0-7.588 3.36-7.588 7.756 0 4.592 3.136 7.728 7.644 7.728zm.084-2.38c-2.94 0-5.04-2.24-5.04-5.348s2.072-5.376 5.04-5.376 5.068 2.268 5.068 5.376-2.072 5.348-5.068 5.348zm16.184 2.128v-16.828h3.976v-2.548h-10.696v2.548h3.976v16.828zm8.484 0v-9.52c0-1.96.952-3.248 2.744-3.248 1.82 0 2.66 1.176 2.66 3.164v9.604h2.66v-9.884c0-2.912-1.26-5.264-4.676-5.264-1.876 0-2.94.896-3.388 1.568v-6.888h-2.66v20.468zm13.412 0v-9.408c0-1.82.784-2.884 2.604-2.884h.728v-2.716c-1.82-.028-2.8.644-3.332 1.484v-1.456h-2.66v14.98zm11.368.252c4.424 0 7.756-3.276 7.756-7.756s-3.22-7.728-7.728-7.728c-4.396 0-7.728 3.22-7.728 7.756 0 4.564 3.22 7.728 7.7 7.728zm.028-2.408c-2.94 0-5.04-2.212-5.04-5.32s2.044-5.348 5.04-5.348c2.94 0 5.04 2.268 5.04 5.348 0 3.108-2.072 5.32-5.04 5.32zm14.336 2.324c1.848 0 2.912-.84 3.36-1.54v1.372h2.66v-14.98h-2.688v9.492c0 1.96-.952 3.248-2.716 3.248s-2.604-1.176-2.604-3.164v-9.576h-2.66v9.884c0 2.968 1.316 5.264 4.648 5.264zm15.54 4.956c4.396 0 7.84-2.044 7.84-7.672v-12.432h-2.576v2.016c-.952-1.288-2.856-2.268-5.152-2.268-4.424 0-7.616 3.36-7.616 7.756 0 4.62 3.164 7.728 7.672 7.728 2.66 0 4.368-1.344 5.012-2.38v.42c0 3.22-2.352 4.508-5.152 4.508-2.184 0-3.892-.784-4.844-1.4l-1.036 2.1c1.204.784 3.276 1.624 5.852 1.624zm.224-7.252c-2.94 0-5.04-2.24-5.04-5.348s2.072-5.376 5.04-5.376 5.068 2.268 5.068 5.376-2.072 5.348-5.068 5.348zm12.992 2.128v-9.52c0-1.96.952-3.248 2.744-3.248 1.82 0 2.66 1.176 2.66 3.164v9.604h2.66v-9.884c0-2.912-1.26-5.264-4.676-5.264-1.876 0-2.94.896-3.388 1.568v-6.888h-2.66v20.468z" fill="#fefae0" transform="translate(-1 -2)"/></svg>