<svg width="240" height="240" viewBox="0 0 240 240" fill="none" xmlns="http://www.w3.org/2000/svg">
<path d="M38.6641 110.938V128H36.4023V110.938H38.6641ZM44.6055 117.84V128H42.4258V115.32H44.4883L44.6055 117.84ZM44.1602 121.18L43.1523 121.145C43.1602 120.277 43.2734 119.477 43.4922 118.742C43.7109 118 44.0352 117.355 44.4648 116.809C44.8945 116.262 45.4297 115.84 46.0703 115.543C46.7109 115.238 47.4531 115.086 48.2969 115.086C48.8906 115.086 49.4375 115.172 49.9375 115.344C50.4375 115.508 50.8711 115.77 51.2383 116.129C51.6055 116.488 51.8906 116.949 52.0938 117.512C52.2969 118.074 52.3984 118.754 52.3984 119.551V128H50.2305V119.656C50.2305 118.992 50.1172 118.461 49.8906 118.062C49.6719 117.664 49.3594 117.375 48.9531 117.195C48.5469 117.008 48.0703 116.914 47.5234 116.914C46.8828 116.914 46.3477 117.027 45.918 117.254C45.4883 117.48 45.1445 117.793 44.8867 118.191C44.6289 118.59 44.4414 119.047 44.3242 119.562C44.2148 120.07 44.1602 120.609 44.1602 121.18ZM52.375 119.984L50.9219 120.43C50.9297 119.734 51.043 119.066 51.2617 118.426C51.4883 117.785 51.8125 117.215 52.2344 116.715C52.6641 116.215 53.1914 115.82 53.8164 115.531C54.4414 115.234 55.1562 115.086 55.9609 115.086C56.6406 115.086 57.2422 115.176 57.7656 115.355C58.2969 115.535 58.7422 115.812 59.1016 116.188C59.4688 116.555 59.7461 117.027 59.9336 117.605C60.1211 118.184 60.2148 118.871 60.2148 119.668V128H58.0352V119.645C58.0352 118.934 57.9219 118.383 57.6953 117.992C57.4766 117.594 57.1641 117.316 56.7578 117.16C56.3594 116.996 55.8828 116.914 55.3281 116.914C54.8516 116.914 54.4297 116.996 54.0625 117.16C53.6953 117.324 53.3867 117.551 53.1367 117.84C52.8867 118.121 52.6953 118.445 52.5625 118.812C52.4375 119.18 52.375 119.57 52.375 119.984ZM70.9727 125.832V119.305C70.9727 118.805 70.8711 118.371 70.668 118.004C70.4727 117.629 70.1758 117.34 69.7773 117.137C69.3789 116.934 68.8867 116.832 68.3008 116.832C67.7539 116.832 67.2734 116.926 66.8594 117.113C66.4531 117.301 66.1328 117.547 65.8984 117.852C65.6719 118.156 65.5586 118.484 65.5586 118.836H63.3906C63.3906 118.383 63.5078 117.934 63.7422 117.488C63.9766 117.043 64.3125 116.641 64.75 116.281C65.1953 115.914 65.7266 115.625 66.3438 115.414C66.9688 115.195 67.6641 115.086 68.4297 115.086C69.3516 115.086 70.1641 115.242 70.8672 115.555C71.5781 115.867 72.1328 116.34 72.5312 116.973C72.9375 117.598 73.1406 118.383 73.1406 119.328V125.234C73.1406 125.656 73.1758 126.105 73.2461 126.582C73.3242 127.059 73.4375 127.469 73.5859 127.812V128H71.3242C71.2148 127.75 71.1289 127.418 71.0664 127.004C71.0039 126.582 70.9727 126.191 70.9727 125.832ZM71.3477 120.312L71.3711 121.836H69.1797C68.5625 121.836 68.0117 121.887 67.5273 121.988C67.043 122.082 66.6367 122.227 66.3086 122.422C65.9805 122.617 65.7305 122.863 65.5586 123.16C65.3867 123.449 65.3008 123.789 65.3008 124.18C65.3008 124.578 65.3906 124.941 65.5703 125.27C65.75 125.598 66.0195 125.859 66.3789 126.055C66.7461 126.242 67.1953 126.336 67.7266 126.336C68.3906 126.336 68.9766 126.195 69.4844 125.914C69.9922 125.633 70.3945 125.289 70.6914 124.883C70.9961 124.477 71.1602 124.082 71.1836 123.699L72.1094 124.742C72.0547 125.07 71.9062 125.434 71.6641 125.832C71.4219 126.23 71.0977 126.613 70.6914 126.98C70.293 127.34 69.8164 127.641 69.2617 127.883C68.7148 128.117 68.0977 128.234 67.4102 128.234C66.5508 128.234 65.7969 128.066 65.1484 127.73C64.5078 127.395 64.0078 126.945 63.6484 126.383C63.2969 125.812 63.1211 125.176 63.1211 124.473C63.1211 123.793 63.2539 123.195 63.5195 122.68C63.7852 122.156 64.168 121.723 64.668 121.379C65.168 121.027 65.7695 120.762 66.4727 120.582C67.1758 120.402 67.9609 120.312 68.8281 120.312H71.3477ZM84.7656 115.32H86.7344V127.73C86.7344 128.848 86.5078 129.801 86.0547 130.59C85.6016 131.379 84.9688 131.977 84.1562 132.383C83.3516 132.797 82.4219 133.004 81.3672 133.004C80.9297 133.004 80.4141 132.934 79.8203 132.793C79.2344 132.66 78.6562 132.43 78.0859 132.102C77.5234 131.781 77.0508 131.348 76.668 130.801L77.8047 129.512C78.3359 130.152 78.8906 130.598 79.4688 130.848C80.0547 131.098 80.6328 131.223 81.2031 131.223C81.8906 131.223 82.4844 131.094 82.9844 130.836C83.4844 130.578 83.8711 130.195 84.1445 129.688C84.4258 129.188 84.5664 128.57 84.5664 127.836V118.109L84.7656 115.32ZM76.0352 121.801V121.555C76.0352 120.586 76.1484 119.707 76.375 118.918C76.6094 118.121 76.9414 117.438 77.3711 116.867C77.8086 116.297 78.3359 115.859 78.9531 115.555C79.5703 115.242 80.2656 115.086 81.0391 115.086C81.8359 115.086 82.5312 115.227 83.125 115.508C83.7266 115.781 84.2344 116.184 84.6484 116.715C85.0703 117.238 85.4023 117.871 85.6445 118.613C85.8867 119.355 86.0547 120.195 86.1484 121.133V122.211C86.0625 123.141 85.8945 123.977 85.6445 124.719C85.4023 125.461 85.0703 126.094 84.6484 126.617C84.2344 127.141 83.7266 127.543 83.125 127.824C82.5234 128.098 81.8203 128.234 81.0156 128.234C80.2578 128.234 79.5703 128.074 78.9531 127.754C78.3438 127.434 77.8203 126.984 77.3828 126.406C76.9453 125.828 76.6094 125.148 76.375 124.367C76.1484 123.578 76.0352 122.723 76.0352 121.801ZM78.2031 121.555V121.801C78.2031 122.434 78.2656 123.027 78.3906 123.582C78.5234 124.137 78.7227 124.625 78.9883 125.047C79.2617 125.469 79.6094 125.801 80.0312 126.043C80.4531 126.277 80.957 126.395 81.543 126.395C82.2617 126.395 82.8555 126.242 83.3242 125.938C83.793 125.633 84.1641 125.23 84.4375 124.73C84.7188 124.23 84.9375 123.688 85.0938 123.102V120.277C85.0078 119.848 84.875 119.434 84.6953 119.035C84.5234 118.629 84.2969 118.27 84.0156 117.957C83.7422 117.637 83.4023 117.383 82.9961 117.195C82.5898 117.008 82.1133 116.914 81.5664 116.914C80.9727 116.914 80.4609 117.039 80.0312 117.289C79.6094 117.531 79.2617 117.867 78.9883 118.297C78.7227 118.719 78.5234 119.211 78.3906 119.773C78.2656 120.328 78.2031 120.922 78.2031 121.555ZM95.2891 128.234C94.4062 128.234 93.6055 128.086 92.8867 127.789C92.1758 127.484 91.5625 127.059 91.0469 126.512C90.5391 125.965 90.1484 125.316 89.875 124.566C89.6016 123.816 89.4648 122.996 89.4648 122.105V121.613C89.4648 120.582 89.6172 119.664 89.9219 118.859C90.2266 118.047 90.6406 117.359 91.1641 116.797C91.6875 116.234 92.2812 115.809 92.9453 115.52C93.6094 115.23 94.2969 115.086 95.0078 115.086C95.9141 115.086 96.6953 115.242 97.3516 115.555C98.0156 115.867 98.5586 116.305 98.9805 116.867C99.4023 117.422 99.7148 118.078 99.918 118.836C100.121 119.586 100.223 120.406 100.223 121.297V122.27H90.7539V120.5H98.0547V120.336C98.0234 119.773 97.9062 119.227 97.7031 118.695C97.5078 118.164 97.1953 117.727 96.7656 117.383C96.3359 117.039 95.75 116.867 95.0078 116.867C94.5156 116.867 94.0625 116.973 93.6484 117.184C93.2344 117.387 92.8789 117.691 92.582 118.098C92.2852 118.504 92.0547 119 91.8906 119.586C91.7266 120.172 91.6445 120.848 91.6445 121.613V122.105C91.6445 122.707 91.7266 123.273 91.8906 123.805C92.0625 124.328 92.3086 124.789 92.6289 125.188C92.957 125.586 93.3516 125.898 93.8125 126.125C94.2812 126.352 94.8125 126.465 95.4062 126.465C96.1719 126.465 96.8203 126.309 97.3516 125.996C97.8828 125.684 98.3477 125.266 98.7461 124.742L100.059 125.785C99.7852 126.199 99.4375 126.594 99.0156 126.969C98.5938 127.344 98.0742 127.648 97.457 127.883C96.8477 128.117 96.125 128.234 95.2891 128.234ZM111.062 110V128H108.883V110H111.062ZM113.969 121.801V121.531C113.969 120.617 114.102 119.77 114.367 118.988C114.633 118.199 115.016 117.516 115.516 116.938C116.016 116.352 116.621 115.898 117.332 115.578C118.043 115.25 118.84 115.086 119.723 115.086C120.613 115.086 121.414 115.25 122.125 115.578C122.844 115.898 123.453 116.352 123.953 116.938C124.461 117.516 124.848 118.199 125.113 118.988C125.379 119.77 125.512 120.617 125.512 121.531V121.801C125.512 122.715 125.379 123.562 125.113 124.344C124.848 125.125 124.461 125.809 123.953 126.395C123.453 126.973 122.848 127.426 122.137 127.754C121.434 128.074 120.637 128.234 119.746 128.234C118.855 128.234 118.055 128.074 117.344 127.754C116.633 127.426 116.023 126.973 115.516 126.395C115.016 125.809 114.633 125.125 114.367 124.344C114.102 123.562 113.969 122.715 113.969 121.801ZM116.137 121.531V121.801C116.137 122.434 116.211 123.031 116.359 123.594C116.508 124.148 116.73 124.641 117.027 125.07C117.332 125.5 117.711 125.84 118.164 126.09C118.617 126.332 119.145 126.453 119.746 126.453C120.34 126.453 120.859 126.332 121.305 126.09C121.758 125.84 122.133 125.5 122.43 125.07C122.727 124.641 122.949 124.148 123.098 123.594C123.254 123.031 123.332 122.434 123.332 121.801V121.531C123.332 120.906 123.254 120.316 123.098 119.762C122.949 119.199 122.723 118.703 122.418 118.273C122.121 117.836 121.746 117.492 121.293 117.242C120.848 116.992 120.324 116.867 119.723 116.867C119.129 116.867 118.605 116.992 118.152 117.242C117.707 117.492 117.332 117.836 117.027 118.273C116.73 118.703 116.508 119.199 116.359 119.762C116.211 120.316 116.137 120.906 116.137 121.531ZM135.707 125.832V119.305C135.707 118.805 135.605 118.371 135.402 118.004C135.207 117.629 134.91 117.34 134.512 117.137C134.113 116.934 133.621 116.832 133.035 116.832C132.488 116.832 132.008 116.926 131.594 117.113C131.188 117.301 130.867 117.547 130.633 117.852C130.406 118.156 130.293 118.484 130.293 118.836H128.125C128.125 118.383 128.242 117.934 128.477 117.488C128.711 117.043 129.047 116.641 129.484 116.281C129.93 115.914 130.461 115.625 131.078 115.414C131.703 115.195 132.398 115.086 133.164 115.086C134.086 115.086 134.898 115.242 135.602 115.555C136.312 115.867 136.867 116.34 137.266 116.973C137.672 117.598 137.875 118.383 137.875 119.328V125.234C137.875 125.656 137.91 126.105 137.98 126.582C138.059 127.059 138.172 127.469 138.32 127.812V128H136.059C135.949 127.75 135.863 127.418 135.801 127.004C135.738 126.582 135.707 126.191 135.707 125.832ZM136.082 120.312L136.105 121.836H133.914C133.297 121.836 132.746 121.887 132.262 121.988C131.777 122.082 131.371 122.227 131.043 122.422C130.715 122.617 130.465 122.863 130.293 123.16C130.121 123.449 130.035 123.789 130.035 124.18C130.035 124.578 130.125 124.941 130.305 125.27C130.484 125.598 130.754 125.859 131.113 126.055C131.48 126.242 131.93 126.336 132.461 126.336C133.125 126.336 133.711 126.195 134.219 125.914C134.727 125.633 135.129 125.289 135.426 124.883C135.73 124.477 135.895 124.082 135.918 123.699L136.844 124.742C136.789 125.07 136.641 125.434 136.398 125.832C136.156 126.23 135.832 126.613 135.426 126.98C135.027 127.34 134.551 127.641 133.996 127.883C133.449 128.117 132.832 128.234 132.145 128.234C131.285 128.234 130.531 128.066 129.883 127.73C129.242 127.395 128.742 126.945 128.383 126.383C128.031 125.812 127.855 125.176 127.855 124.473C127.855 123.793 127.988 123.195 128.254 122.68C128.52 122.156 128.902 121.723 129.402 121.379C129.902 121.027 130.504 120.762 131.207 120.582C131.91 120.402 132.695 120.312 133.562 120.312H136.082ZM149.277 125.539V110H151.457V128H149.465L149.277 125.539ZM140.746 121.801V121.555C140.746 120.586 140.863 119.707 141.098 118.918C141.34 118.121 141.68 117.438 142.117 116.867C142.562 116.297 143.09 115.859 143.699 115.555C144.316 115.242 145.004 115.086 145.762 115.086C146.559 115.086 147.254 115.227 147.848 115.508C148.449 115.781 148.957 116.184 149.371 116.715C149.793 117.238 150.125 117.871 150.367 118.613C150.609 119.355 150.777 120.195 150.871 121.133V122.211C150.785 123.141 150.617 123.977 150.367 124.719C150.125 125.461 149.793 126.094 149.371 126.617C148.957 127.141 148.449 127.543 147.848 127.824C147.246 128.098 146.543 128.234 145.738 128.234C144.996 128.234 144.316 128.074 143.699 127.754C143.09 127.434 142.562 126.984 142.117 126.406C141.68 125.828 141.34 125.148 141.098 124.367C140.863 123.578 140.746 122.723 140.746 121.801ZM142.926 121.555V121.801C142.926 122.434 142.988 123.027 143.113 123.582C143.246 124.137 143.449 124.625 143.723 125.047C143.996 125.469 144.344 125.801 144.766 126.043C145.188 126.277 145.691 126.395 146.277 126.395C146.996 126.395 147.586 126.242 148.047 125.938C148.516 125.633 148.891 125.23 149.172 124.73C149.453 124.23 149.672 123.688 149.828 123.102V120.277C149.734 119.848 149.598 119.434 149.418 119.035C149.246 118.629 149.02 118.27 148.738 117.957C148.465 117.637 148.125 117.383 147.719 117.195C147.32 117.008 146.848 116.914 146.301 116.914C145.707 116.914 145.195 117.039 144.766 117.289C144.344 117.531 143.996 117.867 143.723 118.297C143.449 118.719 143.246 119.211 143.113 119.773C142.988 120.328 142.926 120.922 142.926 121.555ZM157.188 115.32V128H155.008V115.32H157.188ZM154.844 111.957C154.844 111.605 154.949 111.309 155.16 111.066C155.379 110.824 155.699 110.703 156.121 110.703C156.535 110.703 156.852 110.824 157.07 111.066C157.297 111.309 157.41 111.605 157.41 111.957C157.41 112.293 157.297 112.582 157.07 112.824C156.852 113.059 156.535 113.176 156.121 113.176C155.699 113.176 155.379 113.059 155.16 112.824C154.949 112.582 154.844 112.293 154.844 111.957ZM162.836 118.027V128H160.668V115.32H162.719L162.836 118.027ZM162.32 121.18L161.418 121.145C161.426 120.277 161.555 119.477 161.805 118.742C162.055 118 162.406 117.355 162.859 116.809C163.312 116.262 163.852 115.84 164.477 115.543C165.109 115.238 165.809 115.086 166.574 115.086C167.199 115.086 167.762 115.172 168.262 115.344C168.762 115.508 169.188 115.773 169.539 116.141C169.898 116.508 170.172 116.984 170.359 117.57C170.547 118.148 170.641 118.855 170.641 119.691V128H168.461V119.668C168.461 119.004 168.363 118.473 168.168 118.074C167.973 117.668 167.688 117.375 167.312 117.195C166.938 117.008 166.477 116.914 165.93 116.914C165.391 116.914 164.898 117.027 164.453 117.254C164.016 117.48 163.637 117.793 163.316 118.191C163.004 118.59 162.758 119.047 162.578 119.562C162.406 120.07 162.32 120.609 162.32 121.18ZM182.148 115.32H184.117V127.73C184.117 128.848 183.891 129.801 183.438 130.59C182.984 131.379 182.352 131.977 181.539 132.383C180.734 132.797 179.805 133.004 178.75 133.004C178.312 133.004 177.797 132.934 177.203 132.793C176.617 132.66 176.039 132.43 175.469 132.102C174.906 131.781 174.434 131.348 174.051 130.801L175.188 129.512C175.719 130.152 176.273 130.598 176.852 130.848C177.438 131.098 178.016 131.223 178.586 131.223C179.273 131.223 179.867 131.094 180.367 130.836C180.867 130.578 181.254 130.195 181.527 129.688C181.809 129.188 181.949 128.57 181.949 127.836V118.109L182.148 115.32ZM173.418 121.801V121.555C173.418 120.586 173.531 119.707 173.758 118.918C173.992 118.121 174.324 117.438 174.754 116.867C175.191 116.297 175.719 115.859 176.336 115.555C176.953 115.242 177.648 115.086 178.422 115.086C179.219 115.086 179.914 115.227 180.508 115.508C181.109 115.781 181.617 116.184 182.031 116.715C182.453 117.238 182.785 117.871 183.027 118.613C183.27 119.355 183.438 120.195 183.531 121.133V122.211C183.445 123.141 183.277 123.977 183.027 124.719C182.785 125.461 182.453 126.094 182.031 126.617C181.617 127.141 181.109 127.543 180.508 127.824C179.906 128.098 179.203 128.234 178.398 128.234C177.641 128.234 176.953 128.074 176.336 127.754C175.727 127.434 175.203 126.984 174.766 126.406C174.328 125.828 173.992 125.148 173.758 124.367C173.531 123.578 173.418 122.723 173.418 121.801ZM175.586 121.555V121.801C175.586 122.434 175.648 123.027 175.773 123.582C175.906 124.137 176.105 124.625 176.371 125.047C176.645 125.469 176.992 125.801 177.414 126.043C177.836 126.277 178.34 126.395 178.926 126.395C179.645 126.395 180.238 126.242 180.707 125.938C181.176 125.633 181.547 125.23 181.82 124.73C182.102 124.23 182.32 123.688 182.477 123.102V120.277C182.391 119.848 182.258 119.434 182.078 119.035C181.906 118.629 181.68 118.27 181.398 117.957C181.125 117.637 180.785 117.383 180.379 117.195C179.973 117.008 179.496 116.914 178.949 116.914C178.355 116.914 177.844 117.039 177.414 117.289C176.992 117.531 176.645 117.867 176.371 118.297C176.105 118.719 175.906 119.211 175.773 119.773C175.648 120.328 175.586 120.922 175.586 121.555ZM187.445 126.852C187.445 126.484 187.559 126.176 187.785 125.926C188.02 125.668 188.355 125.539 188.793 125.539C189.23 125.539 189.562 125.668 189.789 125.926C190.023 126.176 190.141 126.484 190.141 126.852C190.141 127.211 190.023 127.516 189.789 127.766C189.562 128.016 189.23 128.141 188.793 128.141C188.355 128.141 188.02 128.016 187.785 127.766C187.559 127.516 187.445 127.211 187.445 126.852ZM193.773 126.852C193.773 126.484 193.887 126.176 194.113 125.926C194.348 125.668 194.684 125.539 195.121 125.539C195.559 125.539 195.891 125.668 196.117 125.926C196.352 126.176 196.469 126.484 196.469 126.852C196.469 127.211 196.352 127.516 196.117 127.766C195.891 128.016 195.559 128.141 195.121 128.141C194.684 128.141 194.348 128.016 194.113 127.766C193.887 127.516 193.773 127.211 193.773 126.852ZM200.102 126.852C200.102 126.484 200.215 126.176 200.441 125.926C200.676 125.668 201.012 125.539 201.449 125.539C201.887 125.539 202.219 125.668 202.445 125.926C202.68 126.176 202.797 126.484 202.797 126.852C202.797 127.211 202.68 127.516 202.445 127.766C202.219 128.016 201.887 128.141 201.449 128.141C201.012 128.141 200.676 128.016 200.441 127.766C200.215 127.516 200.102 127.211 200.102 126.852Z" fill="black" fill-opacity="0.6"/>
</svg>
