<svg width="200" height="30" viewBox="0 0 200 30" fill="none" xmlns="http://www.w3.org/2000/svg">
<path d="M18.6641 5.9375V23H16.4023V5.9375H18.6641ZM24.6055 12.8398V23H22.4258V10.3203H24.4883L24.6055 12.8398ZM24.1602 16.1797L23.1523 16.1445C23.1602 15.2773 23.2734 14.4766 23.4922 13.7422C23.7109 13 24.0352 12.3555 24.4648 11.8086C24.8945 11.2617 25.4297 10.8398 26.0703 10.543C26.7109 10.2383 27.4531 10.0859 28.2969 10.0859C28.8906 10.0859 29.4375 10.1719 29.9375 10.3438C30.4375 10.5078 30.8711 10.7695 31.2383 11.1289C31.6055 11.4883 31.8906 11.9492 32.0938 12.5117C32.2969 13.0742 32.3984 13.7539 32.3984 14.5508V23H30.2305V14.6562C30.2305 13.9922 30.1172 13.4609 29.8906 13.0625C29.6719 12.6641 29.3594 12.375 28.9531 12.1953C28.5469 12.0078 28.0703 11.9141 27.5234 11.9141C26.8828 11.9141 26.3477 12.0273 25.918 12.2539C25.4883 12.4805 25.1445 12.793 24.8867 13.1914C24.6289 13.5898 24.4414 14.0469 24.3242 14.5625C24.2148 15.0703 24.1602 15.6094 24.1602 16.1797ZM32.375 14.9844L30.9219 15.4297C30.9297 14.7344 31.043 14.0664 31.2617 13.4258C31.4883 12.7852 31.8125 12.2148 32.2344 11.7148C32.6641 11.2148 33.1914 10.8203 33.8164 10.5312C34.4414 10.2344 35.1562 10.0859 35.9609 10.0859C36.6406 10.0859 37.2422 10.1758 37.7656 10.3555C38.2969 10.5352 38.7422 10.8125 39.1016 11.1875C39.4688 11.5547 39.7461 12.0273 39.9336 12.6055C40.1211 13.1836 40.2148 13.8711 40.2148 14.668V23H38.0352V14.6445C38.0352 13.9336 37.9219 13.3828 37.6953 12.9922C37.4766 12.5938 37.1641 12.3164 36.7578 12.1602C36.3594 11.9961 35.8828 11.9141 35.3281 11.9141C34.8516 11.9141 34.4297 11.9961 34.0625 12.1602C33.6953 12.3242 33.3867 12.5508 33.1367 12.8398C32.8867 13.1211 32.6953 13.4453 32.5625 13.8125C32.4375 14.1797 32.375 14.5703 32.375 14.9844ZM50.9727 20.832V14.3047C50.9727 13.8047 50.8711 13.3711 50.668 13.0039C50.4727 12.6289 50.1758 12.3398 49.7773 12.1367C49.3789 11.9336 48.8867 11.832 48.3008 11.832C47.7539 11.832 47.2734 11.9258 46.8594 12.1133C46.4531 12.3008 46.1328 12.5469 45.8984 12.8516C45.6719 13.1562 45.5586 13.4844 45.5586 13.8359H43.3906C43.3906 13.3828 43.5078 12.9336 43.7422 12.4883C43.9766 12.043 44.3125 11.6406 44.75 11.2812C45.1953 10.9141 45.7266 10.625 46.3438 10.4141C46.9688 10.1953 47.6641 10.0859 48.4297 10.0859C49.3516 10.0859 50.1641 10.2422 50.8672 10.5547C51.5781 10.8672 52.1328 11.3398 52.5312 11.9727C52.9375 12.5977 53.1406 13.3828 53.1406 14.3281V20.2344C53.1406 20.6562 53.1758 21.1055 53.2461 21.582C53.3242 22.0586 53.4375 22.4688 53.5859 22.8125V23H51.3242C51.2148 22.75 51.1289 22.418 51.0664 22.0039C51.0039 21.582 50.9727 21.1914 50.9727 20.832ZM51.3477 15.3125L51.3711 16.8359H49.1797C48.5625 16.8359 48.0117 16.8867 47.5273 16.9883C47.043 17.082 46.6367 17.2266 46.3086 17.4219C45.9805 17.6172 45.7305 17.8633 45.5586 18.1602C45.3867 18.4492 45.3008 18.7891 45.3008 19.1797C45.3008 19.5781 45.3906 19.9414 45.5703 20.2695C45.75 20.5977 46.0195 20.8594 46.3789 21.0547C46.7461 21.2422 47.1953 21.3359 47.7266 21.3359C48.3906 21.3359 48.9766 21.1953 49.4844 20.9141C49.9922 20.6328 50.3945 20.2891 50.6914 19.8828C50.9961 19.4766 51.1602 19.082 51.1836 18.6992L52.1094 19.7422C52.0547 20.0703 51.9062 20.4336 51.6641 20.832C51.4219 21.2305 51.0977 21.6133 50.6914 21.9805C50.293 22.3398 49.8164 22.6406 49.2617 22.8828C48.7148 23.1172 48.0977 23.2344 47.4102 23.2344C46.5508 23.2344 45.7969 23.0664 45.1484 22.7305C44.5078 22.3945 44.0078 21.9453 43.6484 21.3828C43.2969 20.8125 43.1211 20.1758 43.1211 19.4727C43.1211 18.793 43.2539 18.1953 43.5195 17.6797C43.7852 17.1562 44.168 16.7227 44.668 16.3789C45.168 16.0273 45.7695 15.7617 46.4727 15.582C47.1758 15.4023 47.9609 15.3125 48.8281 15.3125H51.3477ZM64.7656 10.3203H66.7344V22.7305C66.7344 23.8477 66.5078 24.8008 66.0547 25.5898C65.6016 26.3789 64.9688 26.9766 64.1562 27.3828C63.3516 27.7969 62.4219 28.0039 61.3672 28.0039C60.9297 28.0039 60.4141 27.9336 59.8203 27.793C59.2344 27.6602 58.6562 27.4297 58.0859 27.1016C57.5234 26.7812 57.0508 26.3477 56.668 25.8008L57.8047 24.5117C58.3359 25.1523 58.8906 25.5977 59.4688 25.8477C60.0547 26.0977 60.6328 26.2227 61.2031 26.2227C61.8906 26.2227 62.4844 26.0938 62.9844 25.8359C63.4844 25.5781 63.8711 25.1953 64.1445 24.6875C64.4258 24.1875 64.5664 23.5703 64.5664 22.8359V13.1094L64.7656 10.3203ZM56.0352 16.8008V16.5547C56.0352 15.5859 56.1484 14.707 56.375 13.918C56.6094 13.1211 56.9414 12.4375 57.3711 11.8672C57.8086 11.2969 58.3359 10.8594 58.9531 10.5547C59.5703 10.2422 60.2656 10.0859 61.0391 10.0859C61.8359 10.0859 62.5312 10.2266 63.125 10.5078C63.7266 10.7812 64.2344 11.1836 64.6484 11.7148C65.0703 12.2383 65.4023 12.8711 65.6445 13.6133C65.8867 14.3555 66.0547 15.1953 66.1484 16.1328V17.2109C66.0625 18.1406 65.8945 18.9766 65.6445 19.7188C65.4023 20.4609 65.0703 21.0938 64.6484 21.6172C64.2344 22.1406 63.7266 22.543 63.125 22.8242C62.5234 23.0977 61.8203 23.2344 61.0156 23.2344C60.2578 23.2344 59.5703 23.0742 58.9531 22.7539C58.3438 22.4336 57.8203 21.9844 57.3828 21.4062C56.9453 20.8281 56.6094 20.1484 56.375 19.3672C56.1484 18.5781 56.0352 17.7227 56.0352 16.8008ZM58.2031 16.5547V16.8008C58.2031 17.4336 58.2656 18.0273 58.3906 18.582C58.5234 19.1367 58.7227 19.625 58.9883 20.0469C59.2617 20.4688 59.6094 20.8008 60.0312 21.043C60.4531 21.2773 60.957 21.3945 61.543 21.3945C62.2617 21.3945 62.8555 21.2422 63.3242 20.9375C63.793 20.6328 64.1641 20.2305 64.4375 19.7305C64.7188 19.2305 64.9375 18.6875 65.0938 18.1016V15.2773C65.0078 14.8477 64.875 14.4336 64.6953 14.0352C64.5234 13.6289 64.2969 13.2695 64.0156 12.957C63.7422 12.6367 63.4023 12.3828 62.9961 12.1953C62.5898 12.0078 62.1133 11.9141 61.5664 11.9141C60.9727 11.9141 60.4609 12.0391 60.0312 12.2891C59.6094 12.5312 59.2617 12.8672 58.9883 13.2969C58.7227 13.7188 58.5234 14.2109 58.3906 14.7734C58.2656 15.3281 58.2031 15.9219 58.2031 16.5547ZM75.2891 23.2344C74.4062 23.2344 73.6055 23.0859 72.8867 22.7891C72.1758 22.4844 71.5625 22.0586 71.0469 21.5117C70.5391 20.9648 70.1484 20.3164 69.875 19.5664C69.6016 18.8164 69.4648 17.9961 69.4648 17.1055V16.6133C69.4648 15.582 69.6172 14.6641 69.9219 13.8594C70.2266 13.0469 70.6406 12.3594 71.1641 11.7969C71.6875 11.2344 72.2812 10.8086 72.9453 10.5195C73.6094 10.2305 74.2969 10.0859 75.0078 10.0859C75.9141 10.0859 76.6953 10.2422 77.3516 10.5547C78.0156 10.8672 78.5586 11.3047 78.9805 11.8672C79.4023 12.4219 79.7148 13.0781 79.918 13.8359C80.1211 14.5859 80.2227 15.4062 80.2227 16.2969V17.2695H70.7539V15.5H78.0547V15.3359C78.0234 14.7734 77.9062 14.2266 77.7031 13.6953C77.5078 13.1641 77.1953 12.7266 76.7656 12.3828C76.3359 12.0391 75.75 11.8672 75.0078 11.8672C74.5156 11.8672 74.0625 11.9727 73.6484 12.1836C73.2344 12.3867 72.8789 12.6914 72.582 13.0977C72.2852 13.5039 72.0547 14 71.8906 14.5859C71.7266 15.1719 71.6445 15.8477 71.6445 16.6133V17.1055C71.6445 17.707 71.7266 18.2734 71.8906 18.8047C72.0625 19.3281 72.3086 19.7891 72.6289 20.1875C72.957 20.5859 73.3516 20.8984 73.8125 21.125C74.2812 21.3516 74.8125 21.4648 75.4062 21.4648C76.1719 21.4648 76.8203 21.3086 77.3516 20.9961C77.8828 20.6836 78.3477 20.2656 78.7461 19.7422L80.0586 20.7852C79.7852 21.1992 79.4375 21.5938 79.0156 21.9688C78.5938 22.3438 78.0742 22.6484 77.457 22.8828C76.8477 23.1172 76.125 23.2344 75.2891 23.2344ZM91.0625 5V23H88.8828V5H91.0625ZM93.9688 16.8008V16.5312C93.9688 15.6172 94.1016 14.7695 94.3672 13.9883C94.6328 13.1992 95.0156 12.5156 95.5156 11.9375C96.0156 11.3516 96.6211 10.8984 97.332 10.5781C98.043 10.25 98.8398 10.0859 99.7227 10.0859C100.613 10.0859 101.414 10.25 102.125 10.5781C102.844 10.8984 103.453 11.3516 103.953 11.9375C104.461 12.5156 104.848 13.1992 105.113 13.9883C105.379 14.7695 105.512 15.6172 105.512 16.5312V16.8008C105.512 17.7148 105.379 18.5625 105.113 19.3438C104.848 20.125 104.461 20.8086 103.953 21.3945C103.453 21.9727 102.848 22.4258 102.137 22.7539C101.434 23.0742 100.637 23.2344 99.7461 23.2344C98.8555 23.2344 98.0547 23.0742 97.3438 22.7539C96.6328 22.4258 96.0234 21.9727 95.5156 21.3945C95.0156 20.8086 94.6328 20.125 94.3672 19.3438C94.1016 18.5625 93.9688 17.7148 93.9688 16.8008ZM96.1367 16.5312V16.8008C96.1367 17.4336 96.2109 18.0312 96.3594 18.5938C96.5078 19.1484 96.7305 19.6406 97.0273 20.0703C97.332 20.5 97.7109 20.8398 98.1641 21.0898C98.6172 21.332 99.1445 21.4531 99.7461 21.4531C100.34 21.4531 100.859 21.332 101.305 21.0898C101.758 20.8398 102.133 20.5 102.43 20.0703C102.727 19.6406 102.949 19.1484 103.098 18.5938C103.254 18.0312 103.332 17.4336 103.332 16.8008V16.5312C103.332 15.9062 103.254 15.3164 103.098 14.7617C102.949 14.1992 102.723 13.7031 102.418 13.2734C102.121 12.8359 101.746 12.4922 101.293 12.2422C100.848 11.9922 100.324 11.8672 99.7227 11.8672C99.1289 11.8672 98.6055 11.9922 98.1523 12.2422C97.707 12.4922 97.332 12.8359 97.0273 13.2734C96.7305 13.7031 96.5078 14.1992 96.3594 14.7617C96.2109 15.3164 96.1367 15.9062 96.1367 16.5312ZM115.707 20.832V14.3047C115.707 13.8047 115.605 13.3711 115.402 13.0039C115.207 12.6289 114.91 12.3398 114.512 12.1367C114.113 11.9336 113.621 11.832 113.035 11.832C112.488 11.832 112.008 11.9258 111.594 12.1133C111.188 12.3008 110.867 12.5469 110.633 12.8516C110.406 13.1562 110.293 13.4844 110.293 13.8359H108.125C108.125 13.3828 108.242 12.9336 108.477 12.4883C108.711 12.043 109.047 11.6406 109.484 11.2812C109.93 10.9141 110.461 10.625 111.078 10.4141C111.703 10.1953 112.398 10.0859 113.164 10.0859C114.086 10.0859 114.898 10.2422 115.602 10.5547C116.312 10.8672 116.867 11.3398 117.266 11.9727C117.672 12.5977 117.875 13.3828 117.875 14.3281V20.2344C117.875 20.6562 117.91 21.1055 117.98 21.582C118.059 22.0586 118.172 22.4688 118.32 22.8125V23H116.059C115.949 22.75 115.863 22.418 115.801 22.0039C115.738 21.582 115.707 21.1914 115.707 20.832ZM116.082 15.3125L116.105 16.8359H113.914C113.297 16.8359 112.746 16.8867 112.262 16.9883C111.777 17.082 111.371 17.2266 111.043 17.4219C110.715 17.6172 110.465 17.8633 110.293 18.1602C110.121 18.4492 110.035 18.7891 110.035 19.1797C110.035 19.5781 110.125 19.9414 110.305 20.2695C110.484 20.5977 110.754 20.8594 111.113 21.0547C111.48 21.2422 111.93 21.3359 112.461 21.3359C113.125 21.3359 113.711 21.1953 114.219 20.9141C114.727 20.6328 115.129 20.2891 115.426 19.8828C115.73 19.4766 115.895 19.082 115.918 18.6992L116.844 19.7422C116.789 20.0703 116.641 20.4336 116.398 20.832C116.156 21.2305 115.832 21.6133 115.426 21.9805C115.027 22.3398 114.551 22.6406 113.996 22.8828C113.449 23.1172 112.832 23.2344 112.145 23.2344C111.285 23.2344 110.531 23.0664 109.883 22.7305C109.242 22.3945 108.742 21.9453 108.383 21.3828C108.031 20.8125 107.855 20.1758 107.855 19.4727C107.855 18.793 107.988 18.1953 108.254 17.6797C108.52 17.1562 108.902 16.7227 109.402 16.3789C109.902 16.0273 110.504 15.7617 111.207 15.582C111.91 15.4023 112.695 15.3125 113.562 15.3125H116.082ZM129.277 20.5391V5H131.457V23H129.465L129.277 20.5391ZM120.746 16.8008V16.5547C120.746 15.5859 120.863 14.707 121.098 13.918C121.34 13.1211 121.68 12.4375 122.117 11.8672C122.562 11.2969 123.09 10.8594 123.699 10.5547C124.316 10.2422 125.004 10.0859 125.762 10.0859C126.559 10.0859 127.254 10.2266 127.848 10.5078C128.449 10.7812 128.957 11.1836 129.371 11.7148C129.793 12.2383 130.125 12.8711 130.367 13.6133C130.609 14.3555 130.777 15.1953 130.871 16.1328V17.2109C130.785 18.1406 130.617 18.9766 130.367 19.7188C130.125 20.4609 129.793 21.0938 129.371 21.6172C128.957 22.1406 128.449 22.543 127.848 22.8242C127.246 23.0977 126.543 23.2344 125.738 23.2344C124.996 23.2344 124.316 23.0742 123.699 22.7539C123.09 22.4336 122.562 21.9844 122.117 21.4062C121.68 20.8281 121.34 20.1484 121.098 19.3672C120.863 18.5781 120.746 17.7227 120.746 16.8008ZM122.926 16.5547V16.8008C122.926 17.4336 122.988 18.0273 123.113 18.582C123.246 19.1367 123.449 19.625 123.723 20.0469C123.996 20.4688 124.344 20.8008 124.766 21.043C125.188 21.2773 125.691 21.3945 126.277 21.3945C126.996 21.3945 127.586 21.2422 128.047 20.9375C128.516 20.6328 128.891 20.2305 129.172 19.7305C129.453 19.2305 129.672 18.6875 129.828 18.1016V15.2773C129.734 14.8477 129.598 14.4336 129.418 14.0352C129.246 13.6289 129.02 13.2695 128.738 12.957C128.465 12.6367 128.125 12.3828 127.719 12.1953C127.32 12.0078 126.848 11.9141 126.301 11.9141C125.707 11.9141 125.195 12.0391 124.766 12.2891C124.344 12.5312 123.996 12.8672 123.723 13.2969C123.449 13.7188 123.246 14.2109 123.113 14.7734C122.988 15.3281 122.926 15.9219 122.926 16.5547ZM137.188 10.3203V23H135.008V10.3203H137.188ZM134.844 6.95703C134.844 6.60547 134.949 6.30859 135.16 6.06641C135.379 5.82422 135.699 5.70312 136.121 5.70312C136.535 5.70312 136.852 5.82422 137.07 6.06641C137.297 6.30859 137.41 6.60547 137.41 6.95703C137.41 7.29297 137.297 7.58203 137.07 7.82422C136.852 8.05859 136.535 8.17578 136.121 8.17578C135.699 8.17578 135.379 8.05859 135.16 7.82422C134.949 7.58203 134.844 7.29297 134.844 6.95703ZM142.836 13.0273V23H140.668V10.3203H142.719L142.836 13.0273ZM142.32 16.1797L141.418 16.1445C141.426 15.2773 141.555 14.4766 141.805 13.7422C142.055 13 142.406 12.3555 142.859 11.8086C143.312 11.2617 143.852 10.8398 144.477 10.543C145.109 10.2383 145.809 10.0859 146.574 10.0859C147.199 10.0859 147.762 10.1719 148.262 10.3438C148.762 10.5078 149.188 10.7734 149.539 11.1406C149.898 11.5078 150.172 11.9844 150.359 12.5703C150.547 13.1484 150.641 13.8555 150.641 14.6914V23H148.461V14.668C148.461 14.0039 148.363 13.4727 148.168 13.0742C147.973 12.668 147.688 12.375 147.312 12.1953C146.938 12.0078 146.477 11.9141 145.93 11.9141C145.391 11.9141 144.898 12.0273 144.453 12.2539C144.016 12.4805 143.637 12.793 143.316 13.1914C143.004 13.5898 142.758 14.0469 142.578 14.5625C142.406 15.0703 142.32 15.6094 142.32 16.1797ZM162.148 10.3203H164.117V22.7305C164.117 23.8477 163.891 24.8008 163.438 25.5898C162.984 26.3789 162.352 26.9766 161.539 27.3828C160.734 27.7969 159.805 28.0039 158.75 28.0039C158.312 28.0039 157.797 27.9336 157.203 27.793C156.617 27.6602 156.039 27.4297 155.469 27.1016C154.906 26.7812 154.434 26.3477 154.051 25.8008L155.188 24.5117C155.719 25.1523 156.273 25.5977 156.852 25.8477C157.438 26.0977 158.016 26.2227 158.586 26.2227C159.273 26.2227 159.867 26.0938 160.367 25.8359C160.867 25.5781 161.254 25.1953 161.527 24.6875C161.809 24.1875 161.949 23.5703 161.949 22.8359V13.1094L162.148 10.3203ZM153.418 16.8008V16.5547C153.418 15.5859 153.531 14.707 153.758 13.918C153.992 13.1211 154.324 12.4375 154.754 11.8672C155.191 11.2969 155.719 10.8594 156.336 10.5547C156.953 10.2422 157.648 10.0859 158.422 10.0859C159.219 10.0859 159.914 10.2266 160.508 10.5078C161.109 10.7812 161.617 11.1836 162.031 11.7148C162.453 12.2383 162.785 12.8711 163.027 13.6133C163.27 14.3555 163.438 15.1953 163.531 16.1328V17.2109C163.445 18.1406 163.277 18.9766 163.027 19.7188C162.785 20.4609 162.453 21.0938 162.031 21.6172C161.617 22.1406 161.109 22.543 160.508 22.8242C159.906 23.0977 159.203 23.2344 158.398 23.2344C157.641 23.2344 156.953 23.0742 156.336 22.7539C155.727 22.4336 155.203 21.9844 154.766 21.4062C154.328 20.8281 153.992 20.1484 153.758 19.3672C153.531 18.5781 153.418 17.7227 153.418 16.8008ZM155.586 16.5547V16.8008C155.586 17.4336 155.648 18.0273 155.773 18.582C155.906 19.1367 156.105 19.625 156.371 20.0469C156.645 20.4688 156.992 20.8008 157.414 21.043C157.836 21.2773 158.34 21.3945 158.926 21.3945C159.645 21.3945 160.238 21.2422 160.707 20.9375C161.176 20.6328 161.547 20.2305 161.82 19.7305C162.102 19.2305 162.32 18.6875 162.477 18.1016V15.2773C162.391 14.8477 162.258 14.4336 162.078 14.0352C161.906 13.6289 161.68 13.2695 161.398 12.957C161.125 12.6367 160.785 12.3828 160.379 12.1953C159.973 12.0078 159.496 11.9141 158.949 11.9141C158.355 11.9141 157.844 12.0391 157.414 12.2891C156.992 12.5312 156.645 12.8672 156.371 13.2969C156.105 13.7188 155.906 14.2109 155.773 14.7734C155.648 15.3281 155.586 15.9219 155.586 16.5547ZM167.445 21.8516C167.445 21.4844 167.559 21.1758 167.785 20.9258C168.02 20.668 168.355 20.5391 168.793 20.5391C169.23 20.5391 169.562 20.668 169.789 20.9258C170.023 21.1758 170.141 21.4844 170.141 21.8516C170.141 22.2109 170.023 22.5156 169.789 22.7656C169.562 23.0156 169.23 23.1406 168.793 23.1406C168.355 23.1406 168.02 23.0156 167.785 22.7656C167.559 22.5156 167.445 22.2109 167.445 21.8516ZM173.773 21.8516C173.773 21.4844 173.887 21.1758 174.113 20.9258C174.348 20.668 174.684 20.5391 175.121 20.5391C175.559 20.5391 175.891 20.668 176.117 20.9258C176.352 21.1758 176.469 21.4844 176.469 21.8516C176.469 22.2109 176.352 22.5156 176.117 22.7656C175.891 23.0156 175.559 23.1406 175.121 23.1406C174.684 23.1406 174.348 23.0156 174.113 22.7656C173.887 22.5156 173.773 22.2109 173.773 21.8516ZM180.102 21.8516C180.102 21.4844 180.215 21.1758 180.441 20.9258C180.676 20.668 181.012 20.5391 181.449 20.5391C181.887 20.5391 182.219 20.668 182.445 20.9258C182.68 21.1758 182.797 21.4844 182.797 21.8516C182.797 22.2109 182.68 22.5156 182.445 22.7656C182.219 23.0156 181.887 23.1406 181.449 23.1406C181.012 23.1406 180.676 23.0156 180.441 22.7656C180.215 22.5156 180.102 22.2109 180.102 21.8516Z" fill="black" fill-opacity="0.6"/>
</svg>
